<svg width="313" height="313" viewBox="0 0 313 313" fill="none" xmlns="http://www.w3.org/2000/svg">
<g clip-path="url(#clip0_470_437)">
<mask id="mask0_470_437" style="mask-type:luminance" maskUnits="userSpaceOnUse" x="0" y="0" width="313" height="313">
<path d="M313 0H0V313H313V0Z" fill="white"/>
</mask>
<g mask="url(#mask0_470_437)">
<mask id="mask1_470_437" style="mask-type:luminance" maskUnits="userSpaceOnUse" x="0" y="0" width="313" height="313">
<path d="M313 0H0V313H313V0Z" fill="white"/>
</mask>
<g mask="url(#mask1_470_437)">
<mask id="mask2_470_437" style="mask-type:luminance" maskUnits="userSpaceOnUse" x="0" y="0" width="313" height="313">
<path d="M268.286 0H44.7143C20.0193 0 0 20.0193 0 44.7143V268.286C0 292.981 20.0193 313 44.7143 313H268.286C292.981 313 313 292.981 313 268.286V44.7143C313 20.0193 292.981 0 268.286 0Z" fill="white"/>
</mask>
<g mask="url(#mask2_470_437)">
<path d="M268.285 0H44.7133C20.0183 0 -0.000976562 20.0193 -0.000976562 44.7143V268.286C-0.000976562 292.981 20.0183 313 44.7133 313H268.285C292.98 313 312.999 292.981 312.999 268.286V44.7143C312.999 20.0193 292.98 0 268.285 0Z" fill="#4B3603"/>
<path d="M424.146 -69.3894C424.146 -69.3894 306.195 -13.2172 327.13 125.742C350.618 281.552 214.414 348.424 121.356 309.906C28.2979 271.254 34.8082 128.283 -142.117 123.869C-322.871 119.456 -360.911 -60.5623 -360.911 -60.5623" stroke="white" stroke-opacity="0.2" stroke-width="8.94286" stroke-miterlimit="10"/>
<path d="M287.811 -111.252C287.811 -111.252 236.751 7.51224 255.005 125.607C273.387 243.702 190.796 257.611 157.99 243.702C89.8235 215.081 76.6754 61.8116 -33.3602 51.9146C-116.078 44.4252 -227.39 103.673 -286.365 -30.7384" stroke="white" stroke-opacity="0.2" stroke-width="8.94286" stroke-miterlimit="10"/>
<path d="M232.795 -58.2886C232.795 -58.2886 251.176 63.0163 169.862 41.3499C76.6765 16.4738 78.0805 -41.8382 -39.8693 13.2639C-81.8665 32.9242 -250.877 38.6751 -216.794 -69.3894" stroke="white" stroke-opacity="0.2" stroke-width="8.94286" stroke-miterlimit="10"/>
<path d="M173.819 201.842C193.348 201.842 209.179 177.411 209.179 147.274C209.179 117.138 193.348 92.7074 173.819 92.7074C154.291 92.7074 138.46 117.138 138.46 147.274C138.46 177.411 154.291 201.842 173.819 201.842Z" stroke="white" stroke-opacity="0.2" stroke-width="8.94286" stroke-miterlimit="10"/>
</g>
<path d="M273 72C273 56.536 260.464 44 245 44H76C60.536 44 48 56.536 48 72V241C48 256.464 60.536 269 76 269H245C260.464 269 273 256.464 273 241V72Z" fill="#F6DF1C"/>
</g>
</g>
<path d="M142.147 243.032C134.95 243.032 128.643 241.085 123.224 237.19C117.89 233.295 114.165 227.919 112.048 221.061L127.796 214.584C128.897 218.648 130.675 221.696 133.13 223.728C135.585 225.76 138.591 226.776 142.147 226.776C146.126 226.776 149.217 225.506 151.418 222.966C153.619 220.426 154.72 216.87 154.72 212.298V150.068H171.865V212.171C171.865 217.251 171.061 221.738 169.452 225.633C167.928 229.443 165.811 232.66 163.102 235.285C160.477 237.825 157.345 239.73 153.704 241C150.148 242.355 146.296 243.032 142.147 243.032ZM216.402 243.032C212.508 243.032 208.782 242.482 205.226 241.381C201.67 240.28 198.411 238.629 195.447 236.428C192.484 234.227 189.902 231.56 187.7 228.427C185.499 225.21 183.763 221.484 182.493 217.251L198.622 210.901C199.808 215.473 201.882 219.283 204.845 222.331C207.809 225.294 211.703 226.776 216.529 226.776C218.307 226.776 220.001 226.564 221.609 226.141C223.303 225.633 224.784 224.956 226.054 224.109C227.409 223.178 228.467 222.035 229.229 220.68C229.991 219.325 230.372 217.759 230.372 215.981C230.372 214.288 230.076 212.764 229.483 211.409C228.891 210.054 227.875 208.784 226.435 207.599C225.081 206.414 223.26 205.271 220.974 204.17C218.773 203.069 216.021 201.926 212.719 200.741L207.131 198.709C204.676 197.862 202.178 196.719 199.638 195.28C197.183 193.841 194.939 192.105 192.907 190.073C190.875 188.041 189.182 185.67 187.827 182.961C186.557 180.167 185.922 177.034 185.922 173.563C185.922 170.007 186.6 166.705 187.954 163.657C189.394 160.524 191.383 157.815 193.923 155.529C196.548 153.158 199.638 151.338 203.194 150.068C206.835 148.713 210.857 148.036 215.259 148.036C219.831 148.036 223.768 148.671 227.07 149.941C230.457 151.126 233.293 152.693 235.579 154.64C237.95 156.503 239.855 158.577 241.294 160.863C242.734 163.149 243.792 165.308 244.469 167.34L229.356 173.69C228.51 171.15 226.943 168.864 224.657 166.832C222.456 164.8 219.408 163.784 215.513 163.784C211.788 163.784 208.698 164.673 206.242 166.451C203.787 168.144 202.559 170.388 202.559 173.182C202.559 175.891 203.745 178.22 206.115 180.167C208.486 182.03 212.254 183.85 217.418 185.628L223.133 187.533C226.774 188.803 230.076 190.285 233.039 191.978C236.087 193.587 238.67 195.534 240.786 197.82C242.988 200.106 244.639 202.731 245.739 205.694C246.925 208.573 247.517 211.917 247.517 215.727C247.517 220.468 246.544 224.575 244.596 228.046C242.734 231.433 240.321 234.227 237.357 236.428C234.394 238.629 231.05 240.28 227.324 241.381C223.599 242.482 219.958 243.032 216.402 243.032Z" fill="black"/>
</g>
<defs>
<clipPath id="clip0_470_437">
<rect width="313" height="313" fill="white"/>
</clipPath>
</defs>
</svg>
