<svg width="313" height="313" viewBox="0 0 313 313" fill="none" xmlns="http://www.w3.org/2000/svg">
<g clip-path="url(#clip0_469_375)">
<mask id="mask0_469_375" style="mask-type:luminance" maskUnits="userSpaceOnUse" x="0" y="0" width="313" height="313">
<path d="M313 0H0V313H313V0Z" fill="white"/>
</mask>
<g mask="url(#mask0_469_375)">
<mask id="mask1_469_375" style="mask-type:luminance" maskUnits="userSpaceOnUse" x="0" y="0" width="313" height="313">
<path d="M313 0H0V313H313V0Z" fill="white"/>
</mask>
<g mask="url(#mask1_469_375)">
<mask id="mask2_469_375" style="mask-type:luminance" maskUnits="userSpaceOnUse" x="0" y="0" width="313" height="313">
<path d="M268.286 0H44.7143C20.0193 0 0 20.0193 0 44.7143V268.286C0 292.981 20.0193 313 44.7143 313H268.286C292.981 313 313 292.981 313 268.286V44.7143C313 20.0193 292.981 0 268.286 0Z" fill="white"/>
</mask>
<g mask="url(#mask2_469_375)">
<path d="M268.285 0H44.7133C20.0183 0 -0.000976562 20.0193 -0.000976562 44.7143V268.286C-0.000976562 292.981 20.0183 313 44.7133 313H268.285C292.98 313 312.999 292.981 312.999 268.286V44.7143C312.999 20.0193 292.98 0 268.285 0Z" fill="black"/>
<path d="M424.146 -69.3894C424.146 -69.3894 306.195 -13.2172 327.13 125.742C350.618 281.552 214.414 348.424 121.356 309.906C28.2979 271.254 34.8082 128.283 -142.117 123.869C-322.871 119.456 -360.911 -60.5623 -360.911 -60.5623" stroke="white" stroke-opacity="0.2" stroke-width="8.94286" stroke-miterlimit="10"/>
<path d="M287.811 -111.252C287.811 -111.252 236.751 7.51224 255.005 125.607C273.387 243.702 190.796 257.611 157.99 243.702C89.8235 215.081 76.6754 61.8116 -33.3602 51.9146C-116.078 44.4252 -227.39 103.673 -286.365 -30.7384" stroke="white" stroke-opacity="0.2" stroke-width="8.94286" stroke-miterlimit="10"/>
<path d="M232.795 -58.2886C232.795 -58.2886 251.176 63.0163 169.862 41.3499C76.6765 16.4738 78.0805 -41.8382 -39.8693 13.2639C-81.8665 32.9242 -250.877 38.6751 -216.794 -69.3894" stroke="white" stroke-opacity="0.2" stroke-width="8.94286" stroke-miterlimit="10"/>
<path d="M173.819 201.842C193.348 201.842 209.179 177.411 209.179 147.274C209.179 117.138 193.348 92.7074 173.819 92.7074C154.291 92.7074 138.46 117.138 138.46 147.274C138.46 177.411 154.291 201.842 173.819 201.842Z" stroke="white" stroke-opacity="0.2" stroke-width="8.94286" stroke-miterlimit="10"/>
</g>
<path d="M269 72C269 56.536 256.464 44 241 44H72C56.536 44 44 56.536 44 72V241C44 256.464 56.536 269 72 269H241C256.464 269 269 256.464 269 241V72Z" fill="#1A1A1A"/>
</g>
<path d="M137.144 210.336C130.928 210.336 125.255 209.349 120.124 207.376C115.092 205.304 110.8 202.344 107.248 198.496C103.696 194.648 100.933 190.011 98.96 184.584C96.987 179.059 96 172.793 96 165.788V102H115.98V166.972C115.98 170.524 116.424 173.78 117.312 176.74C118.2 179.7 119.532 182.265 121.308 184.436C123.084 186.607 125.304 188.333 127.968 189.616C130.632 190.8 133.691 191.392 137.144 191.392C140.696 191.392 143.804 190.8 146.468 189.616C149.132 188.333 151.352 186.607 153.128 184.436C154.904 182.265 156.236 179.7 157.124 176.74C158.012 173.78 158.456 170.524 158.456 166.972V102H178.436V165.788C178.436 172.399 177.449 178.467 175.476 183.992C173.601 189.419 170.839 194.105 167.188 198.052C163.636 201.9 159.295 204.909 154.164 207.08C149.132 209.251 143.459 210.336 137.144 210.336ZM197.372 102H217.352V207.968H197.372V102Z" fill="white"/>
</g>
</g>
<defs>
<clipPath id="clip0_469_375">
<rect width="313" height="313" fill="white"/>
</clipPath>
</defs>
</svg>
