<svg width="313" height="313" viewBox="0 0 313 313" fill="none" xmlns="http://www.w3.org/2000/svg">
<g clip-path="url(#clip0_469_340)">
<mask id="mask0_469_340" style="mask-type:luminance" maskUnits="userSpaceOnUse" x="0" y="0" width="313" height="313">
<path d="M313 0H0V313H313V0Z" fill="white"/>
</mask>
<g mask="url(#mask0_469_340)">
<mask id="mask1_469_340" style="mask-type:luminance" maskUnits="userSpaceOnUse" x="0" y="0" width="313" height="313">
<path d="M268.286 0H44.7143C20.0193 0 0 20.0193 0 44.7143V268.286C0 292.981 20.0193 313 44.7143 313H268.286C292.981 313 313 292.981 313 268.286V44.7143C313 20.0193 292.981 0 268.286 0Z" fill="white"/>
</mask>
<g mask="url(#mask1_469_340)">
<path d="M268.285 0H44.7133C20.0183 0 -0.000976562 20.0193 -0.000976562 44.7143V268.286C-0.000976562 292.981 20.0183 313 44.7133 313H268.285C292.98 313 312.999 292.981 312.999 268.286V44.7143C312.999 20.0193 292.98 0 268.285 0Z" fill="#002B52"/>
<path d="M424.146 -69.3895C424.146 -69.3895 306.195 -13.2173 327.13 125.742C350.618 281.552 214.414 348.424 121.356 309.906C28.298 271.254 34.8083 128.283 -142.117 123.869C-322.871 119.456 -360.911 -60.5624 -360.911 -60.5624" stroke="white" stroke-opacity="0.2" stroke-width="8.94286" stroke-miterlimit="10"/>
<path d="M287.811 -111.252C287.811 -111.252 236.751 7.51218 255.005 125.607C273.387 243.702 190.796 257.611 157.99 243.702C89.8238 215.081 76.6756 61.8116 -33.36 51.9146C-116.078 44.4252 -227.39 103.673 -286.365 -30.7384" stroke="white" stroke-opacity="0.2" stroke-width="8.94286" stroke-miterlimit="10"/>
<path d="M232.795 -58.2887C232.795 -58.2887 251.176 63.0162 169.862 41.3498C76.6767 16.4737 78.0807 -41.8383 -39.8691 13.2638C-81.8663 32.9241 -250.877 38.675 -216.794 -69.3895" stroke="white" stroke-opacity="0.2" stroke-width="8.94286" stroke-miterlimit="10"/>
<path d="M173.819 201.842C193.348 201.842 209.179 177.411 209.179 147.274C209.179 117.138 193.348 92.7074 173.819 92.7074C154.291 92.7074 138.46 117.138 138.46 147.274C138.46 177.411 154.291 201.842 173.819 201.842Z" stroke="white" stroke-opacity="0.2" stroke-width="8.94286" stroke-miterlimit="10"/>
</g>
<path d="M241 44H72C56.536 44 44 56.536 44 72V241C44 256.464 56.536 269 72 269H241C256.464 269 269 256.464 269 241V72C269 56.536 256.464 44 241 44Z" fill="#3178C6"/>
<path fill-rule="evenodd" clip-rule="evenodd" d="M176.291 220.199V244.474C180.239 246.497 184.909 248.014 190.299 249.026C195.69 250.038 201.371 250.543 207.344 250.543C213.164 250.543 218.694 249.987 223.932 248.874C229.171 247.761 233.765 245.928 237.712 243.375C241.66 240.821 244.785 237.482 247.089 233.36C249.392 229.239 250.543 224.144 250.543 218.075C250.543 213.675 249.885 209.819 248.569 206.506C247.253 203.194 245.355 200.248 242.875 197.669C240.395 195.089 237.421 192.776 233.954 190.727C230.487 188.679 226.577 186.745 222.224 184.925C219.035 183.609 216.176 182.333 213.645 181.094C211.114 179.854 208.963 178.59 207.192 177.3C205.42 176.011 204.053 174.645 203.092 173.204C202.13 171.762 201.649 170.132 201.649 168.311C201.649 166.642 202.079 165.138 202.94 163.798C203.8 162.457 205.016 161.307 206.584 160.346C208.153 159.385 210.076 158.639 212.354 158.108C214.632 157.577 217.163 157.311 219.946 157.311C221.971 157.311 224.11 157.463 226.362 157.766C228.614 158.07 230.879 158.537 233.157 159.17C235.435 159.802 237.649 160.598 239.8 161.56C241.951 162.521 243.938 163.633 245.76 164.897V142.215C242.065 140.799 238.028 139.75 233.65 139.067C229.273 138.384 224.249 138.043 218.58 138.043C212.81 138.043 207.344 138.663 202.181 139.902C197.018 141.14 192.475 143.075 188.553 145.704C184.63 148.335 181.53 151.685 179.252 155.756C176.975 159.828 175.836 164.695 175.836 170.359C175.836 177.591 177.923 183.761 182.1 188.869C186.276 193.977 192.614 198.301 201.118 201.841C204.458 203.207 207.571 204.546 210.456 205.862C213.342 207.177 215.834 208.542 217.935 209.958C220.035 211.374 221.693 212.916 222.908 214.585C224.122 216.254 224.729 218.151 224.729 220.275C224.729 221.842 224.35 223.297 223.59 224.637C222.832 225.977 221.68 227.14 220.136 228.126C218.593 229.113 216.669 229.883 214.366 230.44C212.064 230.996 209.368 231.275 206.28 231.275C201.017 231.275 195.804 230.352 190.641 228.505C185.478 226.66 180.695 223.891 176.291 220.199ZM135.83 159.789H167.047V139.801H80.0352V159.789H111.1V248.785H135.83V159.789Z" fill="white"/>
</g>
</g>
<defs>
<clipPath id="clip0_469_340">
<rect width="313" height="313" fill="white"/>
</clipPath>
</defs>
</svg>
