<svg width="975" height="975" viewBox="0 0 975 975" fill="none" xmlns="http://www.w3.org/2000/svg">
<g clip-path="url(#clip0_21_112)">
<mask id="mask0_21_112" style="mask-type:luminance" maskUnits="userSpaceOnUse" x="0" y="0" width="975" height="975">
<path d="M835.714 0H139.286C62.3603 0 0 62.3603 0 139.286V835.714C0 912.64 62.3603 975 139.286 975H835.714C912.64 975 975 912.64 975 835.714V139.286C975 62.3603 912.64 0 835.714 0Z" fill="white"/>
</mask>
<g mask="url(#mask0_21_112)">
<path d="M835.714 6.10352e-05H139.286C62.3603 6.10352e-05 0 62.3604 0 139.286V835.714C0 912.64 62.3603 975 139.286 975H835.714C912.64 975 975 912.64 975 835.714V139.286C975 62.3604 912.64 6.10352e-05 835.714 6.10352e-05Z" fill="#0060B9"/>
<path d="M1321.22 -216.15C1321.22 -216.15 953.807 -41.1722 1019.02 391.688C1092.18 877.04 667.906 1085.35 378.029 965.361C88.1519 844.961 108.431 399.603 -442.693 385.855C-1005.75 372.107 -1124.24 -188.653 -1124.24 -188.653" stroke="white" stroke-opacity="0.2" stroke-width="27.8571" stroke-miterlimit="10"/>
<path d="M896.542 -346.551C896.542 -346.551 737.487 23.4005 794.349 391.269C851.61 759.136 594.338 802.464 492.145 759.136C279.808 669.982 238.851 192.544 -103.911 161.715C-361.58 138.385 -708.319 322.944 -892.027 -95.7505" stroke="white" stroke-opacity="0.2" stroke-width="27.8571" stroke-miterlimit="10"/>
<path d="M725.162 -181.57C725.162 -181.57 782.421 196.296 529.127 128.805C238.853 51.3155 243.226 -130.327 -124.189 41.3168C-255.011 102.559 -781.482 120.473 -675.313 -216.15" stroke="white" stroke-opacity="0.2" stroke-width="27.8571" stroke-miterlimit="10"/>
<path d="M541.455 628.74C602.287 628.74 651.601 552.638 651.601 458.762C651.601 364.886 602.287 288.785 541.455 288.785C480.623 288.785 431.311 364.886 431.311 458.762C431.311 552.638 480.623 628.74 541.455 628.74Z" stroke="white" stroke-opacity="0.2" stroke-width="27.8571" stroke-miterlimit="10"/>
</g>
<path fill-rule="evenodd" clip-rule="evenodd" d="M569.563 758.602V863.117C586.561 871.827 606.665 878.359 629.873 882.714C653.08 887.069 677.54 889.245 703.256 889.245C728.314 889.245 752.123 886.85 774.676 882.059C797.229 877.269 817.008 869.375 834.002 858.383C851 847.386 864.456 833.015 874.374 815.268C884.288 797.524 889.245 775.588 889.245 749.46C889.245 730.517 886.411 713.913 880.746 699.651C875.081 685.389 866.908 672.705 856.229 661.602C845.554 650.496 832.749 640.537 817.825 631.716C802.897 622.899 786.062 614.571 767.32 606.734C753.591 601.069 741.282 595.575 730.384 590.239C719.49 584.904 710.226 579.462 702.602 573.908C694.973 568.356 689.089 562.476 684.949 556.27C680.81 550.064 678.74 543.045 678.74 535.205C678.74 528.019 680.59 521.544 684.295 515.774C687.999 510.003 693.232 505.05 699.987 500.914C706.741 496.774 715.021 493.565 724.829 491.276C734.633 488.99 745.531 487.848 757.515 487.848C766.234 487.848 775.44 488.502 785.135 489.808C794.833 491.113 804.585 493.126 814.393 495.851C824.197 498.571 833.729 502 842.993 506.139C852.252 510.275 860.808 515.066 868.652 520.507V422.853C852.744 416.757 835.364 412.239 816.516 409.299C797.668 406.359 776.038 404.89 751.631 404.89C726.789 404.89 703.256 407.558 681.029 412.894C658.802 418.225 639.242 426.554 622.354 437.876C605.466 449.201 592.12 463.626 582.311 481.154C572.507 498.681 567.603 519.637 567.603 544.025C567.603 575.16 576.59 601.724 594.572 623.717C612.55 645.706 639.84 664.323 676.45 679.565C690.833 685.445 704.236 691.212 716.656 696.877C729.079 702.538 739.81 708.414 748.854 714.51C757.898 720.606 765.034 727.247 770.264 734.433C775.493 741.619 778.108 749.785 778.108 758.931C778.108 765.678 776.473 771.941 773.204 777.711C769.938 783.478 764.978 788.488 758.333 792.734C751.688 796.979 743.405 800.298 733.491 802.693C723.577 805.089 711.971 806.288 698.678 806.288C676.015 806.288 653.572 802.315 631.345 794.365C609.114 786.418 588.521 774.499 569.563 758.602ZM395.362 498.515H529.763V412.458H155.145V498.515H288.89V881.677H395.362V498.515Z" fill="white"/>
</g>
<defs>
<clipPath id="clip0_21_112">
<rect width="975" height="975" fill="white"/>
</clipPath>
</defs>
</svg>
